# xmcd
#
# Track frame offsets: 
#        150
#        11237
#        23845
#        34782
#        44987
#        56575
#        67360
#        77675
#        90530
#        100127
#        111057
#        124325
#        135475
#        147835
#        161045
#        171942
#        182165
#        194380
#        207340
#        218485
#
# Disc length: 3060 seconds
#
# Revision: 2
# Processed by: cddbd v1.5.2PL0 Copyright (c) Steve Scherf et al.
# Submitted via: ExactAudioCopy v1.1
#
DISCID=290bf214
DTITLE=Jim and Jesse - Jim and Jesse 1952-1955 (Bear Fammily)
DYEAR=1992
DGENRE=Bluegrass
TTITLE0=I'll Wash Your Love From My Heart
TTITLE1=Just Wondering Why
TTITLE2=Are You Missing Me
TTITLE3=I Will Always Be Waiting For You
TTITLE4=Virginia Waltz
TTITLE5=Are You Lost In Sin
TTITLE6=Look For Me (I'll Be There)
TTITLE7=Purple Heart
TTITLE8=Air Mail Special
TTITLE9=My Little Honeysuckle Rose
TTITLE10=Waiting For Your Message
TTITLE11=Too Many Tears
TTITLE12=My Darling's In Heaven
TTITLE13=Two Arms To Hold Me
TTITLE14=Is It True
TTITLE15=A Memory Of You
TTITLE16=I'll Wear The Banner
TTITLE17=My Garden Of Love
TTITLE18=Tears Of Regret
TTITLE19=I'll See You Tonight (In My Dreams)
EXTD=
EXTT0=
EXTT1=
EXTT2=
EXTT3=
EXTT4=
EXTT5=
EXTT6=
EXTT7=
EXTT8=
EXTT9=
EXTT10=
EXTT11=
EXTT12=
EXTT13=
EXTT14=
EXTT15=
EXTT16=
EXTT17=
EXTT18=
EXTT19=
PLAYORDER=
